<svg width="250" height="250" viewBox="0 0 250 250" fill="none" xmlns="http://www.w3.org/2000/svg">
<path d="M125.1 7.82C123.75 7.01 122.05 7 120.68 7.82L24.94 63.99C23.52 64.85 22.75 66.35 22.75 68.02V181.12C22.75 182.88 23.67 184.48 25.18 185.38L121.95 241.29C123.56 242.26 125.56 242.21 127.13 241.21L224.31 184.99C225.77 184.12 226.64 182.5 226.64 180.75V68.25C226.64 66.51 225.73 64.91 224.25 64.02L125.1 7.78V7.82ZM214.88 76.82V172.48L172.34 147.36L129.33 123.01V21.01L214.88 68.92V76.78V76.82ZM118.86 21.05V122.75L75.85 148.44L33.31 173.56V76.62L118.86 21.06V21.05ZM40.77 181.15L82.23 157.19L118.86 135.63V228.02L40.77 181.15ZM130.15 226.9V135.05L167.16 157.19L208.62 181.15L130.15 226.9Z" fill="url(#paint0_linear_172_2)" stroke="white" stroke-width="2.5" stroke-miterlimit="10"/>
<path d="M120.766 178.771C149.28 178.771 173.883 153.939 173.883 127.997C173.883 102.056 153.316 74.7207 120.766 74.7207C90.5133 74.7207 69.8324 98.7943 69.8324 127.997C69.8324 154.28 90.4943 178.771 120.766 178.771Z" fill="url(#paint1_radial_172_2)" stroke="#FEFEFE" stroke-width="2.5" stroke-miterlimit="10"/>
<path d="M90.5905 99.8632C95.2133 92.7566 101.793 89.9868 108.559 90.976C115.575 92.0127 118.499 100.219 115.373 106.677C113.564 110.499 112.527 112.193 111.264 112.43L90.0838 100.409C90.0916 100.401 90.2943 100.227 90.5905 99.8632Z" fill="white"/>
<path d="M127.2 9.02005C125.36 7.87005 123.03 7.83005 121.15 8.96005L25.09 63.6601C23.43 64.6501 22.41 66.5001 22.41 68.4901V68.9301L120.96 124.56V240.66L122.11 241.34C123.86 242.39 126.06 242.3 127.76 241.14L224.32 185.21C225.8 184.29 226.7 182.62 226.7 180.82V68.3201C226.7 66.4801 225.7 64.7601 224.07 63.7801L127.2 9.02005ZM124.55 117.02L37.66 68.2701L124.55 16.2501L210.65 68.0401L124.55 117.02ZM34.06 76.5701L118.79 125.83V227.03L34.06 179.26V76.5601V76.5701ZM129.96 227.67V125.87L214.69 76.6001V173.72L129.96 227.7V227.67Z" fill="url(#paint2_linear_172_2)" stroke="white" stroke-width="2.5" stroke-miterlimit="10"/>
<defs>
<linearGradient id="paint0_linear_172_2" x1="21.46" y1="124.8" x2="227.8" y2="124.8" gradientUnits="userSpaceOnUse">
<stop stop-color="white"/>
<stop offset="1" stop-color="#B6BAE4"/>
</linearGradient>
<radialGradient id="paint1_radial_172_2" cx="0" cy="0" r="1" gradientUnits="userSpaceOnUse" gradientTransform="translate(104.813 105.384) scale(65.0623 63.403)">
<stop stop-color="#FFF6F9"/>
<stop offset="0.51" stop-color="#C7C7DE"/>
<stop offset="0.71" stop-color="#D6CEE9"/>
<stop offset="1" stop-color="#BBB5CA"/>
</radialGradient>
<linearGradient id="paint2_linear_172_2" x1="124.6" y1="7.92005" x2="124.6" y2="242.1" gradientUnits="userSpaceOnUse">
<stop stop-color="#FFFAFA"/>
<stop offset="1" stop-color="#CFCBDE"/>
</linearGradient>
</defs>
</svg>
